<svg id="Layer_1" data-name="Layer 1" xmlns="http://www.w3.org/2000/svg" viewBox="0 0 358.84 359.37"><path d="M410,379.41a180.83,180.83,0,0,1-47.06-11c-34.88-12.9-65.83-32.48-94.47-55.92-40.08-32.8-73.56-71.27-98.91-116.55-13.23-23.62-23.14-48.51-27.81-75.37-1.39-8-.73-15.14,3.66-22.15C161.86,72.13,180.88,48.06,204.69,28c1.52-1.28,3.21-2.37,4.83-3.53,9.86-7.07,17.94-5.3,27.53,2.24a17.16,17.16,0,0,1,3.34,3.52C256.84,53.47,272.7,77,284.65,103a103.15,103.15,0,0,1,4.42,12.28c2.09,6.73.86,13.14-3.87,18.17-5.79,6.15-12.15,11.8-18.51,17.38-8.39,7.36-8.59,7.29-4.17,17.61q27.92,65.22,94,91.14c4,1.59,6.56,1.47,9.42-2.22,5-6.49,10.63-12.56,16.16-18.65,7.73-8.52,17.15-11.18,27.71-6.25,12.17,5.67,24.41,11.37,35.92,18.23,14.65,8.74,28.64,18.58,42.81,28.1,5.7,3.83,9.12,9.37,10.85,16.06a13.57,13.57,0,0,1-1.28,10.82c-2.43,4.05-4.82,8.23-7.92,11.75a283.5,283.5,0,0,1-71.74,58.73C415.38,377.87,411.82,378.71,410,379.41Z" transform="translate(-141.09 -20.04)"/></svg>